<?xml version="1.0" encoding="UTF-8" standalone="no"?>
<!-- Created with Inkscape (http://www.inkscape.org/) -->

<svg
   xmlns:dc="http://purl.org/dc/elements/1.1/"
   xmlns:cc="http://creativecommons.org/ns#"
   xmlns:rdf="http://www.w3.org/1999/02/22-rdf-syntax-ns#"
   xmlns:svg="http://www.w3.org/2000/svg"
   xmlns="http://www.w3.org/2000/svg"
   xmlns:sodipodi="http://sodipodi.sourceforge.net/DTD/sodipodi-0.dtd"
   xmlns:inkscape="http://www.inkscape.org/namespaces/inkscape"
   width="289.01233mm"
   height="153.37944mm"
   viewBox="0 0 289.01233 153.37944"
   version="1.1"
   id="svg8"
   inkscape:version="0.92.3 (2405546, 2018-03-11)"
   sodipodi:docname="CAS logo improved.svg">
  <defs
     id="defs2" />
  <sodipodi:namedview
     id="base"
     pagecolor="#ffffff"
     bordercolor="#666666"
     borderopacity="1.0"
     inkscape:pageopacity="0.0"
     inkscape:pageshadow="2"
     inkscape:zoom="0.98994949"
     inkscape:cx="388.67131"
     inkscape:cy="325.45262"
     inkscape:document-units="mm"
     inkscape:current-layer="layer2"
     showgrid="false"
     inkscape:object-nodes="false"
     fit-margin-top="0"
     fit-margin-left="0"
     fit-margin-right="0"
     fit-margin-bottom="0"
     inkscape:window-width="1920"
     inkscape:window-height="1057"
     inkscape:window-x="-8"
     inkscape:window-y="-8"
     inkscape:window-maximized="1" />
  <metadata
     id="metadata5">
    <rdf:RDF>
      <cc:Work
         rdf:about="">
        <dc:format>image/svg+xml</dc:format>
        <dc:type
           rdf:resource="http://purl.org/dc/dcmitype/StillImage" />
        <dc:title></dc:title>
      </cc:Work>
    </rdf:RDF>
  </metadata>
  <g
     inkscape:groupmode="layer"
     id="layer3"
     inkscape:label="Layer 3"
     transform="translate(-3.9938366,-28.31027)">
    <path
       inkscape:connector-curvature="0"
       id="path845"
       style="font-style:normal;font-variant:normal;font-weight:bold;font-stretch:normal;font-size:medium;line-height:1.25;font-family:Montserrat;-inkscape-font-specification:Montserrat;letter-spacing:0px;word-spacing:0px;fill:#0085f6;fill-opacity:1;stroke:none;stroke-width:0;stroke-miterlimit:4;stroke-dasharray:none"
       d="m 68.808526,160.65459 q -18.29861,0 -33.176916,-7.86661 -14.707276,-8.03776 -23.258035,-22.06094 -8.3797384,-14.19431 -8.3797384,-31.979915 0,-17.785452 8.3797384,-31.808789 8.550759,-14.194139 23.258035,-22.060935 14.878306,-8.037598 33.347916,-8.037598 15.562367,0 28.046461,5.472374 12.655093,5.472533 21.205853,15.733432 l -17.78555,16.41744 Q 88.304198,60.439872 70.347648,60.439872 q -11.115972,0 -19.837732,4.959328 -8.721759,4.788528 -13.681215,13.510291 -4.788395,8.721765 -4.788395,19.837634 0,11.116035 4.788395,19.837795 4.959456,8.72176 13.681215,13.68124 8.72176,4.78837 19.837732,4.78837 17.95655,0 30.098642,-14.19428 l 17.78555,16.41743 q -8.55076,10.43203 -21.205853,15.9044 -12.655124,5.47251 -28.217461,5.47251 z" />
    <path
       inkscape:connector-curvature="0"
       id="path849"
       style="font-style:normal;font-variant:normal;font-weight:bold;font-stretch:normal;font-size:medium;line-height:1.25;font-family:Montserrat;-inkscape-font-specification:Montserrat;letter-spacing:0px;word-spacing:0px;fill:#10b935;fill-opacity:1;stroke:none;stroke-width:4.27537441"
       d="m 242.2147,159.70274 q -14.19413,0 -27.53332,-3.76228 -13.16824,-3.93339 -21.206,-10.08994 l 9.40594,-20.86388 q 7.69579,5.64352 18.29852,9.06385 10.603,3.42036 21.20597,3.42036 11.80004,0 17.44355,-3.42036 5.64349,-3.5913 5.64349,-9.40576 0,-4.27548 -3.42036,-7.01167 -3.24922,-2.9073 -8.55079,-4.61739 -5.13046,-1.7101 -14.02319,-3.76228 -13.68124,-3.24939 -22.403,-6.49863 -8.7217,-3.249248 -15.04931,-10.431856 -6.15655,-7.182638 -6.15655,-19.153796 0,-10.431861 5.64349,-18.81154 5.64346,-8.550803 16.93052,-13.510294 11.45797,-4.959325 27.8754,-4.959325 11.45812,0 22.403,2.736184 10.94492,2.736187 19.15364,7.866636 l -8.55064,21.034844 q -16.58857,-9.40577 -33.17697,-9.40577 -11.62906,0 -17.27255,3.762275 -5.4724,3.762438 -5.4724,9.918978 0,6.156541 6.32752,9.234808 6.49861,2.907149 19.66667,5.814458 13.68125,3.249232 22.40301,6.498633 8.72176,3.249214 14.8783,10.260885 6.32752,7.01152 6.32752,18.98267 0,10.26091 -5.81446,18.81155 -5.64351,8.37985 -17.10146,13.33915 -11.45812,4.95949 -27.87554,4.95949 z" />
  </g>
  <g
     inkscape:label="Layer 1"
     inkscape:groupmode="layer"
     id="layer1"
     transform="translate(-3.9938366,-115.31027)">
    <g
       inkscape:groupmode="layer"
       id="layer2"
       inkscape:label="Layer 2">
      <path
         inkscape:connector-curvature="0"
         d="m 189.70201,235.82268 h -72.31904 l -13.79628,32.86703 H 66.648362 L 136.07464,115.31027 h 35.60324 l 69.64872,153.37944 h -37.82832 z m -11.34854,-26.95096 -24.69975,-58.72239 -24.69971,58.72239 z"
         style="font-style:normal;font-variant:normal;font-weight:bold;font-stretch:normal;font-size:10.58333302px;line-height:1.25;font-family:Montserrat;-inkscape-font-specification:Montserrat;letter-spacing:0px;word-spacing:0px;fill:#ffffff;fill-opacity:1;stroke:none;stroke-width:2.08639669;stroke-linecap:round;stroke-miterlimit:4;stroke-dasharray:none;stroke-opacity:1"
         id="path847-3" />
    </g>
    <path
       inkscape:connector-curvature="0"
       id="path847"
       style="font-style:normal;font-variant:normal;font-weight:bold;font-stretch:normal;font-size:medium;line-height:1.25;font-family:Montserrat;-inkscape-font-specification:Montserrat;letter-spacing:0px;word-spacing:0px;fill:#ff1b20;fill-opacity:1;stroke:none;stroke-width:1.61588979;stroke-linecap:round;stroke-miterlimit:4;stroke-dasharray:none;stroke-opacity:1"
       d="M 181.39459,221.2034 H 125.8147 l -10.60291,25.65225 H 86.823299 L 140.17998,127.1452 h 27.3624 l 53.52776,119.71045 H 191.9975 Z m -8.72179,-21.03485 -18.98264,-45.83195 -18.98267,45.83195 z" />
  </g>
</svg>
