<?xml version="1.0" encoding="UTF-8" standalone="no"?>
<svg
   xmlns:dc="http://purl.org/dc/elements/1.1/"
   xmlns:cc="http://creativecommons.org/ns#"
   xmlns:rdf="http://www.w3.org/1999/02/22-rdf-syntax-ns#"
   xmlns:svg="http://www.w3.org/2000/svg"
   xmlns="http://www.w3.org/2000/svg"
   xmlns:sodipodi="http://sodipodi.sourceforge.net/DTD/sodipodi-0.dtd"
   xmlns:inkscape="http://www.inkscape.org/namespaces/inkscape"
   width="212.63702mm"
   height="75.461433mm"
   viewBox="0 0 212.63702 75.461433"
   version="1.1"
   id="svg8"
   inkscape:version="1.0.2-2 (e86c870879, 2021-01-15)"
   sodipodi:docname="casportal_logo_lowercase.svg"
   inkscape:export-filename="C:\Users\szara\Downloads\casportal.png"
   inkscape:export-xdpi="318"
   inkscape:export-ydpi="318">
  <defs
     id="defs2" />
  <sodipodi:namedview
     id="base"
     pagecolor="#ffffff"
     bordercolor="#666666"
     borderopacity="1.0"
     inkscape:pageopacity="1"
     inkscape:pageshadow="2"
     inkscape:zoom="0.98994949"
     inkscape:cx="363.36676"
     inkscape:cy="170.41474"
     inkscape:document-units="mm"
     inkscape:current-layer="layer1"
     showgrid="false"
     fit-margin-top="20"
     fit-margin-left="20"
     fit-margin-bottom="20"
     fit-margin-right="20"
     inkscape:window-width="1560"
     inkscape:window-height="940"
     inkscape:window-x="235"
     inkscape:window-y="43"
     inkscape:window-maximized="0"
     inkscape:document-rotation="0"
     showguides="false"
     inkscape:pagecheckerboard="false" />
  <metadata
     id="metadata5">
    <rdf:RDF>
      <cc:Work
         rdf:about="">
        <dc:format>image/svg+xml</dc:format>
        <dc:type
           rdf:resource="http://purl.org/dc/dcmitype/StillImage" />
        <dc:title />
      </cc:Work>
    </rdf:RDF>
  </metadata>
  <g
     inkscape:label="Layer 1"
     inkscape:groupmode="layer"
     id="layer1"
     transform="translate(-35.708839,-137.36639)">
    <path
       d="m 65.246743,184.82717 q -2.760053,0 -4.92617,-1.25775 -2.13118,-1.29268 -3.388925,-3.49373 -1.222809,-2.20106 -1.222809,-4.96111 0,-2.79499 1.187871,-4.99605 1.187871,-2.20105 3.249176,-3.4588 2.061305,-1.29268 4.751483,-1.29268 2.13118,0 3.912986,0.8385 1.816743,0.83849 3.179301,2.51549 0.384311,0.41925 0.279499,0.90837 -0.104812,0.45419 -0.593936,0.80356 -0.384311,0.2795 -0.873434,0.20962 -0.454186,-0.10481 -0.80356,-0.52406 -2.026367,-2.30586 -5.100856,-2.30586 -1.956493,0 -3.4588,0.94331 -1.46737,0.9433 -2.305867,2.58536 -0.80356,1.64206 -0.80356,3.77324 0,2.09624 0.873435,3.7383 0.873434,1.64205 2.445616,2.58536 1.572182,0.94331 3.59855,0.94331 1.362557,0 2.480553,-0.34937 1.152933,-0.38431 2.026368,-1.15294 0.419248,-0.34937 0.873434,-0.38431 0.454186,-0.0349 0.838497,0.2795 0.419249,0.38431 0.454186,0.87344 0.06987,0.48912 -0.314436,0.83849 -2.550429,2.34081 -6.358602,2.34081 z"
       style="font-style:normal;font-variant:normal;font-weight:normal;font-stretch:normal;font-size:34.9374px;line-height:1.25;font-family:Comfortaa;-inkscape-font-specification:Comfortaa;letter-spacing:0px;word-spacing:0px;fill:#3b82f6;fill-opacity:1;stroke:#3b82f6;stroke-width:0.7;stroke-miterlimit:4;stroke-dasharray:none;stroke-opacity:1"
       id="path825" />
    <path
       d="m 85.954234,184.82717 q -2.690178,0 -4.821358,-1.25775 -2.131179,-1.29268 -3.388925,-3.49373 -1.222808,-2.20106 -1.222808,-4.96111 0,-2.79499 1.257745,-4.99605 1.292683,-2.20105 3.493738,-3.4588 2.201054,-1.29268 4.961107,-1.29268 2.760053,0 4.92617,1.29268 2.201054,1.25775 3.4588,3.4588 1.292683,2.20106 1.32762,4.99605 l -1.083059,0.83849 q 0,2.5155 -1.18787,4.54186 -1.152934,1.99143 -3.179301,3.1793 -1.991431,1.15294 -4.541859,1.15294 z m 0.279499,-2.44562 q 2.026368,0 3.59855,-0.94331 1.607119,-0.94331 2.51549,-2.58536 0.94331,-1.677 0.94331,-3.7383 0,-2.09624 -0.94331,-3.7383 -0.908371,-1.64206 -2.51549,-2.58537 -1.572182,-0.97824 -3.59855,-0.97824 -1.99143,0 -3.59855,0.97824 -1.607119,0.94331 -2.550428,2.58537 -0.943309,1.64206 -0.943309,3.7383 0,2.0613 0.943309,3.7383 0.943309,1.64205 2.550428,2.58536 1.60712,0.94331 3.59855,0.94331 z m 8.350032,2.27093 q -0.593935,0 -0.978246,-0.34937 -0.384311,-0.38431 -0.384311,-0.97825 v -5.97429 l 0.66381,-2.76005 2.061305,0.52406 v 8.21028 q 0,0.59394 -0.384311,0.97825 -0.384311,0.34937 -0.978247,0.34937 z"
       style="font-style:normal;font-variant:normal;font-weight:normal;font-stretch:normal;font-size:34.9374px;line-height:1.25;font-family:Comfortaa;-inkscape-font-specification:Comfortaa;letter-spacing:0px;word-spacing:0px;fill:#dc2626;fill-opacity:1;stroke:#dc2626;stroke-width:0.7;stroke-miterlimit:4;stroke-dasharray:none;stroke-opacity:1"
       id="path827" />
    <path
       d="m 107.88562,184.82717 q -2.0613,0 -4.08767,-0.69875 -2.02637,-0.69875 -3.28411,-2.09624 -0.38431,-0.41925 -0.31444,-0.94331 0.0699,-0.52406 0.52406,-0.90837 0.48913,-0.34938 1.01319,-0.2795 0.52406,0.0699 0.87343,0.45418 0.8385,0.97825 2.20106,1.50231 1.39749,0.52406 3.07448,0.52406 2.58537,0 3.7383,-0.87343 1.15294,-0.90837 1.18787,-2.16612 0,-1.25775 -1.18787,-2.0613 -1.18787,-0.8385 -3.91298,-1.29269 -3.52868,-0.559 -5.17073,-1.95649 -1.64206,-1.3975 -1.64206,-3.31905 0,-1.78181 0.94331,-2.96968 0.94331,-1.18787 2.51549,-1.7818 1.57218,-0.59394 3.4588,-0.59394 2.3408,0 4.0178,0.80356 1.71193,0.80356 2.76005,2.16612 0.34937,0.45418 0.2795,0.94331 -0.0699,0.48912 -0.559,0.80356 -0.41925,0.24456 -0.97825,0.17468 -0.52406,-0.10481 -0.90837,-0.52406 -0.87343,-1.01318 -2.02636,-1.46737 -1.15294,-0.48912 -2.65525,-0.48912 -1.92155,0 -3.07448,0.80356 -1.15294,0.76862 -1.15294,1.95649 0,0.80356 0.41925,1.3975 0.45419,0.59393 1.50231,1.04812 1.08306,0.45418 3.00461,0.76862 2.62031,0.41925 4.12261,1.25775 1.53725,0.80356 2.16612,1.92155 0.66381,1.08306 0.66381,2.37574 0,1.64206 -0.97825,2.8998 -0.94331,1.22281 -2.65524,1.92156 -1.67699,0.69875 -3.87805,0.69875 z"
       style="font-style:normal;font-variant:normal;font-weight:normal;font-stretch:normal;font-size:34.9374px;line-height:1.25;font-family:Comfortaa;-inkscape-font-specification:Comfortaa;letter-spacing:0px;word-spacing:0px;fill:#059669;fill-opacity:1;stroke:#059669;stroke-width:0.7;stroke-miterlimit:4;stroke-dasharray:none;stroke-opacity:1"
       id="path829" />
    <path
       d="m 121.40857,192.82783 q -0.62887,0 -1.01318,-0.38431 -0.34938,-0.34938 -0.34938,-0.97825 v -16.49044 q 0.0349,-2.72512 1.29269,-4.89123 1.29268,-2.20106 3.4588,-3.4588 2.20105,-1.25775 4.92617,-1.25775 2.79499,0 4.99604,1.29268 2.20105,1.25775 3.4588,3.4588 1.29268,2.20106 1.29268,4.99605 0,2.76005 -1.25774,4.96111 -1.22281,2.20105 -3.35399,3.49373 -2.13118,1.25775 -4.82136,1.25775 -2.3408,0 -4.26236,-0.97825 -1.88662,-1.01318 -3.03955,-2.65524 v 10.27159 q 0,0.62887 -0.38431,0.97825 -0.34937,0.38431 -0.94331,0.38431 z m 8.3151,-10.44628 q 2.02636,0 3.63348,-0.94331 1.60712,-0.94331 2.51549,-2.58536 0.94331,-1.677 0.94331,-3.7383 0,-2.09624 -0.94331,-3.7383 -0.90837,-1.64206 -2.51549,-2.58537 -1.60712,-0.97824 -3.63348,-0.97824 -1.99143,0 -3.59855,0.97824 -1.60712,0.94331 -2.51549,2.58537 -0.90838,1.64206 -0.90838,3.7383 0,2.0613 0.90838,3.7383 0.90837,1.64205 2.51549,2.58536 1.60712,0.94331 3.59855,0.94331 z"
       style="font-style:normal;font-variant:normal;font-weight:normal;font-stretch:normal;font-size:34.9374px;line-height:1.25;font-family:Comfortaa;-inkscape-font-specification:Comfortaa;letter-spacing:0px;word-spacing:0px;fill:#000000;fill-opacity:1;stroke:#000000;stroke-width:0.7;stroke-miterlimit:4;stroke-dasharray:none;stroke-opacity:1"
       id="path831" />
    <path
       d="m 153.44723,184.82717 q -2.79499,0 -4.99604,-1.25775 -2.20106,-1.25774 -3.4588,-3.4588 -1.25775,-2.20105 -1.25775,-4.99604 0,-2.82993 1.25775,-5.03098 1.25774,-2.20106 3.4588,-3.4588 2.20105,-1.25775 4.99604,-1.25775 2.79499,0 4.96111,1.25775 2.20105,1.25774 3.4588,3.4588 1.25774,2.20105 1.29268,5.03098 0,2.79499 -1.29268,4.99604 -1.25775,2.20106 -3.4588,3.4588 -2.16612,1.25775 -4.96111,1.25775 z m 0,-2.44562 q 2.02637,0 3.63349,-0.94331 1.60712,-0.94331 2.51549,-2.58536 0.90837,-1.64206 0.90837,-3.7383 0,-2.09624 -0.90837,-3.7383 -0.90837,-1.677 -2.51549,-2.6203 -1.60712,-0.94331 -3.63349,-0.94331 -2.02637,0 -3.63348,0.94331 -1.60712,0.9433 -2.55043,2.6203 -0.90837,1.64206 -0.90837,3.7383 0,2.09624 0.90837,3.7383 0.94331,1.64205 2.55043,2.58536 1.60711,0.94331 3.63348,0.94331 z"
       style="font-style:normal;font-variant:normal;font-weight:normal;font-stretch:normal;font-size:34.9374px;line-height:1.25;font-family:Comfortaa;-inkscape-font-specification:Comfortaa;letter-spacing:0px;word-spacing:0px;fill:#ffcc00;fill-opacity:1;stroke:#ffcc00;stroke-width:0.7;stroke-opacity:1;stroke-miterlimit:4;stroke-dasharray:none"
       id="path833" />
    <path
       d="m 169.54408,172.87859 q 0.10481,-2.16612 1.118,-3.87805 1.04812,-1.71193 2.69018,-2.69018 1.67699,-0.97825 3.70336,-0.97825 1.60712,0 2.48055,0.45419 0.87344,0.45418 0.66381,1.32762 -0.13975,0.52406 -0.48912,0.69875 -0.31444,0.17468 -0.80356,0.13975 -0.45419,-0.0349 -1.04812,-0.0699 -1.9565,-0.17469 -3.49374,0.41925 -1.50231,0.559 -2.41068,1.74687 -0.87343,1.18787 -0.87343,2.82993 z m 0.20963,11.77389 q -0.62888,0 -0.97825,-0.34937 -0.34937,-0.34938 -0.34937,-0.97825 v -16.4555 q 0,-0.62888 0.34937,-0.97825 0.34937,-0.34937 0.97825,-0.34937 0.62887,0 0.97824,0.34937 0.34938,0.34937 0.34938,0.97825 v 16.4555 q 0,0.62887 -0.34938,0.97825 -0.34937,0.34937 -0.97824,0.34937 z"
       style="font-style:normal;font-variant:normal;font-weight:normal;font-stretch:normal;font-size:34.9374px;line-height:1.25;font-family:Comfortaa;-inkscape-font-specification:Comfortaa;letter-spacing:0px;word-spacing:0px;fill:#000000;fill-opacity:1;stroke:#000000;stroke-width:0.7;stroke-opacity:1;stroke-miterlimit:4;stroke-dasharray:none"
       id="path835" />
    <path
       d="m 191.9384,184.65248 q -1.85168,0 -3.31905,-0.87343 -1.43243,-0.87344 -2.27093,-2.37574 -0.8385,-1.53725 -0.8385,-3.49374 v -17.08438 q 0,-0.59393 0.34937,-0.97824 0.38432,-0.38432 0.97825,-0.38432 0.59394,0 0.97825,0.38432 0.38431,0.38431 0.38431,0.97824 v 17.08438 q 0,1.7818 1.04812,2.93474 1.04812,1.11799 2.69018,1.11799 h 0.94331 q 0.559,0 0.90837,0.38431 0.34937,0.38432 0.34937,0.97825 0,0.59394 -0.41925,0.97825 -0.41924,0.34937 -1.04812,0.34937 z m -8.69941,-16.07119 q -0.52406,0 -0.87343,-0.31444 -0.34938,-0.34937 -0.34938,-0.83849 0,-0.52406 0.34938,-0.8385 0.34937,-0.34938 0.87343,-0.34938 h 8.90903 q 0.52406,0 0.87344,0.34938 0.34937,0.31444 0.34937,0.8385 0,0.48912 -0.34937,0.83849 -0.34938,0.31444 -0.87344,0.31444 z"
       style="font-style:normal;font-variant:normal;font-weight:normal;font-stretch:normal;font-size:34.9374px;line-height:1.25;font-family:Comfortaa;-inkscape-font-specification:Comfortaa;letter-spacing:0px;word-spacing:0px;fill:#000000;fill-opacity:1;stroke:#000000;stroke-width:0.7;stroke-opacity:1;stroke-miterlimit:4;stroke-dasharray:none"
       id="path837" />
    <path
       d="m 206.93853,184.82717 q -2.69018,0 -4.82136,-1.25775 -2.13118,-1.29268 -3.38892,-3.49373 -1.22281,-2.20106 -1.22281,-4.96111 0,-2.79499 1.25775,-4.99605 1.29268,-2.20105 3.49373,-3.4588 2.20106,-1.29268 4.96111,-1.29268 2.76005,0 4.92617,1.29268 2.20105,1.25775 3.4588,3.4588 1.29268,2.20106 1.32762,4.99605 l -1.08306,0.83849 q 0,2.5155 -1.18787,4.54186 -1.15293,1.99143 -3.1793,3.1793 -1.99143,1.15294 -4.54186,1.15294 z m 0.2795,-2.44562 q 2.02637,0 3.59855,-0.94331 1.60712,-0.94331 2.51549,-2.58536 0.94331,-1.677 0.94331,-3.7383 0,-2.09624 -0.94331,-3.7383 -0.90837,-1.64206 -2.51549,-2.58537 -1.57218,-0.97824 -3.59855,-0.97824 -1.99143,0 -3.59855,0.97824 -1.60712,0.94331 -2.55043,2.58537 -0.94331,1.64206 -0.94331,3.7383 0,2.0613 0.94331,3.7383 0.94331,1.64205 2.55043,2.58536 1.60712,0.94331 3.59855,0.94331 z m 8.35003,2.27093 q -0.59393,0 -0.97824,-0.34937 -0.38432,-0.38431 -0.38432,-0.97825 v -5.97429 l 0.66381,-2.76005 2.06131,0.52406 v 8.21028 q 0,0.59394 -0.38431,0.97825 -0.38431,0.34937 -0.97825,0.34937 z"
       style="font-style:normal;font-variant:normal;font-weight:normal;font-stretch:normal;font-size:34.9374px;line-height:1.25;font-family:Comfortaa;-inkscape-font-specification:Comfortaa;letter-spacing:0px;word-spacing:0px;fill:#000000;fill-opacity:1;stroke:#000000;stroke-width:0.7;stroke-opacity:1;stroke-miterlimit:4;stroke-dasharray:none"
       id="path839" />
    <path
       d="m 226.3195,184.65248 q -1.39749,0 -2.51549,-0.76862 -1.08306,-0.76862 -1.71193,-2.13118 -0.59394,-1.36256 -0.59394,-3.14436 v -19.91431 q 0,-0.59393 0.34938,-0.94331 0.38431,-0.38431 0.97824,-0.38431 0.59394,0 0.94331,0.38431 0.38432,0.34938 0.38432,0.94331 v 19.91431 q 0,1.5023 0.59393,2.44561 0.62887,0.94331 1.57218,0.94331 h 0.87344 q 0.52406,0 0.83849,0.38431 0.31444,0.34938 0.31444,0.94331 0,0.59394 -0.45419,0.97825 -0.41924,0.34937 -1.11799,0.34937 z"
       style="font-style:normal;font-variant:normal;font-weight:normal;font-stretch:normal;font-size:34.9374px;line-height:1.25;font-family:Comfortaa;-inkscape-font-specification:Comfortaa;letter-spacing:0px;word-spacing:0px;fill:#000000;fill-opacity:1;stroke:#000000;stroke-width:0.7;stroke-opacity:1;stroke-miterlimit:4;stroke-dasharray:none"
       id="path841" />
    <path
       id="rect850"
       style="fill:#ffcc00;stroke-width:0.964999;stroke-linecap:round;stroke-linejoin:round"
       d="m 151.86259,182.70198 h 3.35742 c 1.75371,0 3.16555,-0.292 3.16555,1.46172 v 6.06351 c 0,1.75372 -1.41184,3.16555 -3.16555,3.16555 h -3.35742 c -1.75371,0 -3.16555,-1.41183 -3.16555,-3.16555 v -6.06351 c 0,-1.75372 1.41184,-1.46172 3.16555,-1.46172 z"
       sodipodi:nodetypes="sssssssss" />
    <rect
       style="fill:#ffcc00;stroke-width:0.964999;stroke-linecap:round;stroke-linejoin:round"
       id="rect853"
       width="4.1426778"
       height="6.6149211"
       x="151.37589"
       y="157.29419"
       ry="2.0713389" />
    <rect
       style="fill:#ffcc00;stroke-width:0.964999;stroke-linecap:round;stroke-linejoin:round"
       id="rect853-6"
       width="4.1426778"
       height="6.6149211"
       x="219.42157"
       y="57.008026"
       ry="2.0713389"
       transform="rotate(30)" />
    <rect
       style="fill:#ffcc00;stroke-width:0.964999;stroke-linecap:round;stroke-linejoin:round"
       id="rect853-6-9"
       width="4.1426778"
       height="6.6149211"
       x="-46.356823"
       y="210.45525"
       ry="2.0713389"
       transform="matrix(-0.8660254,0.5,0.5,0.8660254,0,0)" />
  </g>
</svg>
