<?xml version="1.0" encoding="UTF-8" standalone="no"?>
<svg
   xmlns:dc="http://purl.org/dc/elements/1.1/"
   xmlns:cc="http://creativecommons.org/ns#"
   xmlns:rdf="http://www.w3.org/1999/02/22-rdf-syntax-ns#"
   xmlns:svg="http://www.w3.org/2000/svg"
   xmlns="http://www.w3.org/2000/svg"
   xmlns:sodipodi="http://sodipodi.sourceforge.net/DTD/sodipodi-0.dtd"
   xmlns:inkscape="http://www.inkscape.org/namespaces/inkscape"
   width="203.3mm"
   height="78.868mm"
   version="1.1"
   viewBox="0 0 203.3 78.868"
   id="svg26"
   sodipodi:docname="logo_mat.svg"
   inkscape:export-filename="D:\Projects\cas-front\public\graphics\logo_mat.png"
   inkscape:export-xdpi="318"
   inkscape:export-ydpi="318"
   inkscape:version="1.0.2-2 (e86c870879, 2021-01-15)">
  <defs
     id="defs30" />
  <sodipodi:namedview
     pagecolor="#ffffff"
     bordercolor="#666666"
     borderopacity="1"
     objecttolerance="10"
     gridtolerance="10"
     guidetolerance="10"
     inkscape:pageopacity="0"
     inkscape:pageshadow="2"
     inkscape:window-width="1920"
     inkscape:window-height="1057"
     id="namedview28"
     showgrid="false"
     inkscape:zoom="1.3561034"
     inkscape:cx="363.34013"
     inkscape:cy="136.96009"
     inkscape:window-x="-8"
     inkscape:window-y="-8"
     inkscape:window-maximized="1"
     inkscape:current-layer="svg26" />
  <metadata
     id="metadata2">
    <rdf:RDF>
      <cc:Work
         rdf:about="">
        <dc:format>image/svg+xml</dc:format>
        <dc:type
           rdf:resource="http://purl.org/dc/dcmitype/StillImage" />
        <dc:title />
      </cc:Work>
    </rdf:RDF>
  </metadata>
  <g
     transform="translate(1.6524 -60.566)"
     id="g24">
    <path
       d="m152.82 73.264a19.991 19.246 0 0 0-28.271 0 19.991 19.246 0 0 0-4.7e-4 27.219l33.125 31.891 28.271-27.219z"
       fill="#00e676"
       opacity=".8"
       id="path4" />
    <path
       d="m190.8 73.264a19.991 19.246 0 0 0-28.271-3e-6l-33.125 31.891 28.271 27.218 33.125-31.891a19.991 19.246 0 0 0 0-27.218z"
       fill="#00e676"
       opacity=".8"
       id="path6" />
    <g
       fill="#1e88e5"
       id="g18">
      <path
         d="m51.113 90.197a23.883 23.883 0 0 1-23.883 23.883 23.883 23.883 0 0 1-23.883-23.883 23.883 23.883 0 0 1 23.883-23.883 23.883 23.883 0 0 1 23.883 23.883z"
         opacity=".8"
         id="path8" />
      <g
         stroke-linecap="round"
         stroke-linejoin="round"
         id="g16">
        <path
           d="m27.23 89.265a11.197 10.957 0 0 0-11.197 10.957v33.463h22.393v-33.463a11.197 10.957 0 0 0-11.197-10.957z"
           opacity=".8"
           stroke-width=".79816"
           id="path10" />
        <path
           d="m16.034 118.07h22.393v3.9736h-22.393z"
           opacity=".8"
           stroke-width=".70009"
           id="path12" />
        <path
           d="m16.034 125.52h22.393v3.9736h-22.393z"
           opacity=".8"
           stroke-width=".70009"
           id="path14" />
      </g>
    </g>
    <path
       d="m94.062 65.566-19.67 20.845-19.671 20.845h39.341z"
       fill="#f50057"
       opacity=".8"
       stroke-linecap="round"
       stroke-linejoin="round"
       stroke-width="1.0272"
       id="path20" />
    <path
       d="m75.153 134.43 19.67-20.845 19.671-20.845h-39.341z"
       fill="#f50057"
       opacity=".8"
       stroke-linecap="round"
       stroke-linejoin="round"
       stroke-width="1.0272"
       id="path22" />
  </g>
</svg>
